<svg preserveAspectRatio="none" overflow="visible" style="display: block;" width="18.9055" height="19.0617" viewBox="0 0 18.9055 19.0617" fill="none" xmlns="http://www.w3.org/2000/svg">
<path id="Vector" d="M1.05906 9.84331C2.10069 10.7113 3.09016 11.7008 4.02762 12.7251L16.0584 17.4992L15.4334 19.0617L6.11089 15.3639C6.56226 16.0583 6.96156 16.7007 7.30876 17.343C6.85739 17.343 5.76363 17.4645 5.2949 17.6034C4.23591 15.4333 2.22213 13.0549 0 11.1974L1.04169 9.84331H1.05906ZM8.15941 4.73935C11.3884 4.86088 14.8952 4.27067 17.1521 3.05545C17.291 3.57626 17.6382 4.34004 17.9507 4.82613C15.6591 5.83304 12.3259 6.2497 9.0448 6.14554L14.4439 8.28083L15.4682 5.67678L16.9438 6.26708L15.9022 8.87113L18.9055 10.069L18.2632 11.6661L15.2599 10.4683L14.2182 13.0897L12.7426 12.4994L13.7842 9.87807L8.48926 7.77742C10.9371 9.99955 12.9856 12.5863 13.9578 14.9646C13.4544 15.0514 12.6731 15.3813 12.2391 15.6244C11.4405 13.1418 9.25315 10.2773 6.78797 8.10727L5.26025 11.9612L3.71515 11.3363L5.5901 6.63168L2.32634 5.32965L2.96867 3.73242L6.23243 5.03445L8.22881 0L9.77391 0.607571L8.14203 4.72198L8.15941 4.73935Z" fill="#030000"/>
</svg>
