<svg preserveAspectRatio="none" overflow="visible" style="display: block;" width="38" height="51" viewBox="0 0 38 51" fill="none" xmlns="http://www.w3.org/2000/svg">
<g id="Group 44">
<path id="Vector" d="M4.88367 11.9997L3 13.4814L4.96948 15.9923L6.85315 14.5105L4.88367 11.9997Z" stroke="#221714" stroke-linecap="round" stroke-linejoin="round"/>
<path id="Vector_2" d="M6.43799 15.3936L7.43799 17.3936" stroke="#221714" stroke-linecap="round" stroke-linejoin="round"/>
<path id="Vector_3" d="M33.135 11.9999L31.1655 14.5107L33.0493 15.9925L35.0188 13.4817L33.135 11.9999Z" stroke="#221714" stroke-linecap="round" stroke-linejoin="round"/>
<path id="Vector_4" d="M32 15.2725L31 17.2725" stroke="#221714" stroke-linecap="round" stroke-linejoin="round"/>
<path id="Vector_5" d="M16 5.03087V9H22V5L16 5.03087Z" stroke="black" stroke-linecap="round" stroke-linejoin="round"/>
<path id="Vector_6" d="M19 32L27 39" stroke="#221714" stroke-linecap="round" stroke-linejoin="round"/>
<path id="Vector_7" d="M18 9V13" stroke="black" stroke-linecap="round" stroke-linejoin="round"/>
<path id="Vector_8" d="M20 9V13" stroke="black" stroke-linecap="round" stroke-linejoin="round"/>
<g id="Ellipse 8">
<circle cx="19" cy="32" r="18.5" stroke="black"/>
<circle cx="19" cy="32" r="18.5" stroke="black"/>
</g>
<g id="Ellipse 9">
<circle cx="19" cy="32" r="14.5" stroke="black"/>
<circle cx="19" cy="32" r="14.5" stroke="black"/>
</g>
<g id="Ellipse 10">
<path d="M19 0.5C22.0376 0.5 24.5 2.96243 24.5 6C24.5 9.03757 22.0376 11.5 19 11.5C15.9624 11.5 13.5 9.03757 13.5 6C13.5 2.96243 15.9624 0.5 19 0.5Z" stroke="black"/>
<path d="M19 0.5C22.0376 0.5 24.5 2.96243 24.5 6C24.5 9.03757 22.0376 11.5 19 11.5C15.9624 11.5 13.5 9.03757 13.5 6C13.5 2.96243 15.9624 0.5 19 0.5Z" stroke="black"/>
</g>
</g>
</svg>
