<svg preserveAspectRatio="none" overflow="visible" style="display: block;" width="12.7547" height="8.26125" viewBox="0 0 12.7547 8.26125" fill="none" xmlns="http://www.w3.org/2000/svg">
<path id="Vector" d="M1.76549 0.838713C2.45991 0.734551 3.22379 1.0817 3.84876 1.75876H3.91816C4.10913 1.29003 4.4911 0.890744 5.15079 0.786581C5.82785 0.682419 6.45286 1.09909 6.81743 1.46366H6.88683C7.23404 0.856048 7.94578 0.196341 8.91797 0.0400972C10.7061 -0.237669 12.0776 0.960181 12.338 2.62678C12.4075 3.07815 12.3727 3.49479 12.3033 3.80727L12.7547 6.6544L11.7998 6.81069L11.522 5.07465C11.1922 5.54338 10.602 5.95994 9.85549 6.0641C8.1021 6.34187 6.76536 5.21353 6.50495 3.54693C6.43551 3.13028 6.47023 2.64417 6.60911 2.22752C6.29662 1.96712 5.94937 1.75874 5.48064 1.84554C4.94247 1.93234 4.59522 2.33171 4.78618 3.44277L5.04663 5.09192C5.34176 6.98421 4.8904 8.02583 3.53629 8.23415C2.04329 8.4772 0.463515 7.07105 0.0815863 4.58851C-0.230901 2.55735 0.359302 1.0644 1.76549 0.838713ZM3.15441 7.05366C3.97035 6.93213 4.1439 6.28986 3.9703 5.16143L3.72723 3.65109C3.69251 3.39068 3.65786 2.97404 3.69258 2.57475C3.15441 2.01922 2.58142 1.82825 2.07797 1.91505C1.15787 2.05393 0.70656 3.06083 0.949606 4.62327C1.21001 6.2725 2.26901 7.19254 3.13703 7.05366H3.15441ZM9.66456 4.93574C10.9145 4.74478 11.5395 3.78997 11.3832 2.78307C11.227 1.75881 10.3416 1.06438 9.07426 1.25535C7.84167 1.44631 7.1646 2.43585 7.32084 3.42539C7.47708 4.41494 8.41459 5.14408 9.64718 4.95312L9.66456 4.93574Z" fill="#030000"/>
</svg>
